<svg xmlns="http://www.w3.org/2000/svg" width="435.001" height="484.641" viewBox="0 0 435.001 484.641"><g transform="translate(-47.728 -43.705)"><g transform="translate(47.728 444.732)"><g transform="translate(229.064 1.716)"><path d="M-21494.266-23250.617h19.711l7.07,19.859,7.508-19.859h18.6l-35.258,79.25h-18.594l17.453-39.828Z" transform="translate(21645.646 23250.617)" fill="#f0d5b4"/><path d="M-21476.52-23238.16l-11.516,18.648,2.617,6.961h19.734Z" transform="translate(21670.775 23291.654)" fill="#d44132"/><path d="M98.32,135.861" transform="translate(-98.32 -124.709)" fill="none" stroke="#707070" stroke-width="1"/></g><path d="M31.89-107.1c19.866,0,25.89-11.791,25.89-29.991V-189H38.426v53.446c0,8.2-.769,12.945-6.537,12.945s-6.537-4.742-6.537-12.945V-189H23.51L6.447-178.308,6-137.092C6-118.892,12.024-107.1,31.89-107.1Z" transform="translate(321.117 190.716)" fill="#f0d5b4"/><g transform="translate(0 0)"><path d="M34.061,5.264h-.507L18.087-31.5H1.1V48.366H18.341V7.166h.507l18.382,41.2h2.111L51.3,37.987V-31.5H34.061Z" transform="translate(261.875 31.503)" fill="#deb21f"/><path d="M1.1-20.664V47.754H19.688V-31.5H9.531Z" transform="translate(235.145 31.503)" fill="#deb21f" stroke="rgba(0,0,0,0)" stroke-width="1"/><path d="M50.313,26.638c0-10.582-5.737-17.084-15.3-19,7.9-1.275,13.769-7.9,13.769-17.849,0-12.622-6.5-21.292-22.822-21.292h-3.92L1.1-11.127V48.822H26.089C42.791,48.822,50.313,40.662,50.313,26.638ZM24.049,15.291c6.5,0,8.287,3.7,8.287,9.307,0,5.865-1.785,9.18-8.287,9.18H19.332V15.291ZM19.332-16.583h4.207c6.375,0,7.9,3.952,7.9,9.052,0,4.972-1.53,8.67-7.9,8.67H19.332Z" transform="translate(-1.1 31.503)" fill="#deb21f"/><path d="M.953-20.778V47.754h18.81V-31.5H9.837Z" transform="translate(52.049 31.503)" fill="#deb21f" stroke="rgba(0,0,0,0)" stroke-width="1"/><path d="M51.7,17.889c0-22.786-7.176-35.753-25.681-35.753S.336-4.9.336,17.889v9.819c0,22.786,7.176,35.753,25.681,35.753S51.7,50.494,51.7,27.708ZM19.471,8.95c0-7.05,1.133-11.834,6.546-11.834S32.564,1.9,32.564,8.95v27.7c0,7.05-1.133,11.834-6.546,11.834S19.471,43.7,19.471,36.646Z" transform="translate(181.156 17.864)" fill="#deb21f"/><path d="M19.345,8.7c0-7.05.881-11.582,6.294-11.582S31.934,1.649,31.934,8.7v8.56h18V13.608c0-18.506-5.917-31.472-23.919-31.472C7.512-17.864.336-5.4.336,17.385V28.212C.336,51,7.512,63.461,26.017,63.461c18,0,23.919-12.967,23.919-31.472V28.337h-18V36.9c0,7.05-.881,11.582-6.294,11.582S19.345,43.948,19.345,36.9Z" transform="translate(125.956 17.864)" fill="#deb21f"/><path d="M27.464,62.066l6.525-7.016V-2.331H49.551V-17.64H.336V-2.331H15.518v64.4Z" transform="translate(74.945 17.646)" fill="#deb21f"/></g></g><g transform="translate(127.428 43.705)"><g transform="translate(0)"><path d="M-22928.367-21378.57l-24.43-31.012,8.141-20.715Z" transform="translate(23039.98 21734.352)" fill="#deb21f"/><path d="M-22443.973-22152.582l84.484-2.2-6.937-67.711Z" transform="translate(22444.986 22222.496)" fill="#deb21f"/><path d="M-22293.289-22219.211l7.6,62.969,98.945-4.633-1.711-29.359Z" transform="translate(22376.037 22220.988)" fill="#c78a44"/><path d="M-22445.824-22094.668l30.945,78.625h225.563l-37.75-90.4Z" transform="translate(22445.824 22169.393)" fill="#d44132"/><path d="M-22064.207-21931.676h47.711l-41.383,54.406Z" transform="translate(22271.223 22089.438)" fill="#deb21f"/><path d="M-22213.234-21885.5l-39.078,22.094-8.7-69.07h101.3l14.531,118.992-51.68,28.734Z" transform="translate(22361.262 22089.799)" fill="#5f6044"/><path d="M-22229.895-21829.332l-58.469,31.992,33.281,110.516,43.578-26.375-17.617-116.133" transform="translate(22373.781 22042.607)" fill="#deb21f"/><path d="M0,0,29.387,30.678,15.407,55.686Z" transform="translate(232.725 251.717) rotate(-140)" fill="#deb21f"/><path d="M14.884,0l2.722,19.82L0,31.822Z" transform="matrix(0.999, 0.035, -0.035, 0.999, 86.309, 210.83)" fill="#deb21f"/></g></g></g></svg>