<svg xmlns="http://www.w3.org/2000/svg" width="44.037" height="58.35" viewBox="0 0 44.037 58.35"><g transform="translate(-0.001 -0.001)"><g transform="translate(0)"><path d="M-22948.791-21421.812l-4.006-5.086,1.336-3.4Z" transform="translate(22967.096 21480.162)" fill="#deb21f"/><path d="M-22443.973-22211.029l13.855-.361-1.137-11.105Z" transform="translate(22444.139 22222.496)" fill="#deb21f"/><path d="M-22293.289-22219.211l1.246,10.326,16.227-.76-.281-4.814Z" transform="translate(22306.859 22219.502)" fill="#c78a44"/><path d="M-22445.824-22104.512l5.074,12.895h36.992l-6.191-14.824Z" transform="translate(22445.824 22116.766)" fill="#d44132"/><path d="M-22064.207-21931.676h7.824l-6.785,8.922Z" transform="translate(22098.158 21957.549)" fill="#deb21f"/><path d="M-22253.172-21924.77l-6.41,3.625-1.426-11.328h16.615l2.383,19.514-8.477,4.713Z" transform="translate(22277.449 21958.273)" fill="#5f6044"/><path d="M-22278.773-21829.332l-9.59,5.248,5.459,18.123,7.146-4.324-2.889-19.047" transform="translate(22302.371 21864.309)" fill="#deb21f"/><path d="M0,0,4.819,5.031l-2.293,4.1Z" transform="translate(38.167 41.282) rotate(-140)" fill="#deb21f"/><path d="M2.441,0l.446,3.251L0,5.219Z" transform="matrix(0.999, 0.035, -0.035, 0.999, 14.155, 34.576)" fill="#deb21f"/></g></g></svg>